<svg class="icon" viewBox="0 0 1024 1024" version="1.1" xmlns="http://www.w3.org/2000/svg" p-id="22923" height="128" width="128"><path d="M762.88 512.682667c-13.653333-4.209778-22.755556-7.054222-15.928889-25.031111 15.587556-39.139556 17.180444-72.817778 0-96.938667-31.516444-45.511111-117.873778-42.666667-216.974222-1.251556 0 0-31.175111 13.767111-22.755556-11.377777 15.246222-49.038222 12.970667-89.998222-11.377777-113.777778-53.703111-53.816889-196.608 1.934222-318.577778 124.472889C85.333333 481.052444 32.085333 578.332444 32.085333 662.528 32.085333 823.409778 238.933333 921.6 440.206222 921.6 705.422222 921.6 880.867556 767.431111 880.867556 645.461333c0-73.728-62.122667-115.484444-117.987556-132.778666zM440.775111 863.573333c-160.995556 15.815111-300.032-56.888889-310.499555-162.588444s111.616-204.8 273.066666-220.387556 300.145778 56.888889 310.613334 162.588445S601.884444 847.644444 440.775111 863.573333zM938.666667 218.112A257.251556 257.251556 0 0 0 694.044444 138.808889a37.205333 37.205333 0 1 0 15.473778 72.704A183.409778 183.409778 0 0 1 921.6 447.146667a37.205333 37.205333 0 1 0 70.883556 22.755555 257.365333 257.365333 0 0 0-53.816889-251.790222zM840.476444 307.2a125.155556 125.155556 0 0 0-119.352888-38.570667 31.971556 31.971556 0 1 0 13.312 62.577778A61.44 61.44 0 0 1 805.660444 409.6a32.085333 32.085333 0 1 0 60.984889 19.797333A125.155556 125.155556 0 0 0 840.476444 307.2zM456.931556 561.948444c-76.686222-19.911111-163.271111 18.318222-196.608 85.902223s-1.024 145.408 76.344888 170.666666c80.213333 25.941333 174.762667-13.767111 207.644445-88.064s-8.078222-148.024889-87.381333-168.504889zM398.222222 737.848889A60.984889 60.984889 0 0 1 324.380444 762.311111a42.780444 42.780444 0 0 1-16.497777-64.398222 61.326222 61.326222 0 0 1 72.476444-24.576A43.008 43.008 0 0 1 398.222222 737.848889z m51.313778-65.877333a22.755556 22.755556 0 0 1-27.875556 10.353777 16.270222 16.270222 0 0 1-7.054222-24.234666 22.755556 22.755556 0 0 1 27.192889-10.24 16.156444 16.156444 0 0 1 7.850667 24.120889z" p-id="22924"></path></svg>